<svg version="1.0" xmlns="http://www.w3.org/2000/svg" viewBox="0 0 101.000000 58.000000" preserveAspectRatio="xMidYMid meet">

<g transform="translate(0.000000,58.000000) scale(0.100000,-0.100000)"
fill="#EEEEF2" stroke="none">
<path d="M94 295 l91 -285 61 0 61 0 38 143 c21 78 42 157 47 175 5 17 13 32
17 32 5 0 25 -64 46 -142 21 -79 42 -158 47 -176 l9 -33 62 3 61 3 88 275 c48
151 88 279 88 283 0 4 -30 7 -67 5 l-66 -3 -48 -184 c-45 -173 -54 -200 -63
-190 -2 2 -23 87 -47 189 l-44 185 -65 3 -65 3 -45 -186 c-25 -103 -49 -187
-54 -188 -7 -2 -43 124 -101 351 -5 20 -11 22 -74 22 l-68 0 91 -285z"/>
<path d="M863 170 c-93 -56 -18 -195 86 -159 69 24 76 131 11 164 -38 20 -59
19 -97 -5z"/>
</g>
</svg>
