<?xml version="1.0" encoding="UTF-8"?>
<svg xmlns="http://www.w3.org/2000/svg" xmlns:xlink="http://www.w3.org/1999/xlink" width="337.67pt" height="100.33pt" viewBox="0 0 337.67 100.33" version="1.1">
<defs>
<clipPath id="clip1">
  <path d="M 0 0 L 337.671875 0 L 337.671875 100.328125 L 0 100.328125 Z M 0 0 "/>
</clipPath>
</defs>
<g id="surface1">
<path style=" stroke:none;fill-rule:nonzero;fill:#1D2145;fill-opacity:1;" d="M 280.5 70.242188 L 238.667969 70.242188 L 238.667969 57.828125 L 280.5 57.828125 Z M 315.335938 43.164063 L 295.167969 43.164063 L 295.167969 22.328125 C 295.167969 19.542969 293.613281 17.121094 291.328125 15.882813 C 290.289063 15.316406 289.101563 14.996094 287.835938 14.996094 L 220.167969 14.996094 C 218.386719 14.996094 216.753906 15.632813 215.484375 16.6875 C 214.539063 17.304688 213.722656 18.144531 213.125 19.191406 L 190.1875 61.75 L 169.488281 21.113281 C 169.109375 19.539063 168.214844 18.097656 166.878906 17.050781 C 164.734375 15.109375 161.546875 14.542969 158.78125 15.875 C 156.4375 17 154.972656 19.210938 154.683594 21.613281 L 133.054688 61.75 L 111.433594 19.308594 C 110.648438 17.675781 109.335938 16.472656 107.804688 15.789063 C 106.808594 15.285156 105.691406 14.996094 104.5 14.996094 L 49.835938 14.996094 C 48.566406 14.996094 47.378906 15.316406 46.339844 15.882813 C 44.050781 17.121094 42.5 19.542969 42.5 22.328125 L 42.5 43.164063 L 22.335938 43.164063 C 18.285156 43.164063 15 46.445313 15 50.496094 C 15 54.546875 18.285156 57.828125 22.335938 57.828125 L 42.5 57.828125 L 42.5 77.996094 C 42.5 82.046875 45.785156 85.328125 49.835938 85.328125 C 53.882813 85.328125 57.167969 82.046875 57.167969 77.996094 L 57.167969 57.828125 L 92 57.828125 C 96.050781 57.828125 99.335938 54.546875 99.335938 50.496094 C 99.335938 46.445313 96.050781 43.164063 92 43.164063 L 57.167969 43.164063 L 57.167969 29.664063 L 100.253906 29.664063 L 126.046875 80.300781 C 126.230469 80.753906 126.460938 81.191406 126.730469 81.605469 C 128.640625 84.875 132.765625 86.1875 136.234375 84.519531 C 138.40625 83.472656 139.824219 81.496094 140.25 79.300781 L 162.058594 38.832031 L 183.183594 80.300781 C 183.367188 80.757813 183.597656 81.191406 183.867188 81.605469 C 185.773438 84.875 189.898438 86.1875 193.371094 84.519531 C 195.542969 83.476563 196.957031 81.496094 197.386719 79.300781 L 224.136719 29.664063 L 280.5 29.664063 L 280.5 43.164063 L 231.667969 43.164063 C 227.730469 43.164063 224.523438 46.269531 224.351563 50.164063 L 224.332031 50.164063 L 224.332031 77.574219 C 224.332031 81.625 227.617188 84.910156 231.667969 84.910156 L 285.40625 84.910156 C 286.167969 85.179688 286.980469 84.933594 287.835938 84.933594 C 291.882813 84.933594 295.167969 81.648438 295.167969 77.601563 L 295.167969 57.828125 L 315.335938 57.828125 C 319.382813 57.828125 322.667969 54.546875 322.667969 50.496094 C 322.667969 46.445313 319.382813 43.164063 315.335938 43.164063 "/>
<g clip-path="url(#clip1)" clip-rule="nonzero">
<path style=" stroke:none;fill-rule:nonzero;fill:#EEEEF2;fill-opacity:1;" d="M 287.835938 -0.00390625 L 220.167969 -0.00390625 C 215.253906 -0.00390625 210.457031 1.628906 206.570313 4.613281 C 203.921875 6.496094 201.691406 8.953125 200.089844 11.773438 L 200.003906 11.921875 L 199.921875 12.074219 L 190.5625 29.4375 C 190.5625 29.4375 179.695313 8.167969 176.546875 5.578125 C 172.484375 2.074219 167.324219 0.148438 161.949219 0.148438 C 158.625 0.148438 155.28125 0.914063 152.277344 2.355469 C 146.457031 5.15625 143.238281 10.285156 140.492188 16.328125 L 133.425781 29.4375 L 124.851563 12.605469 C 122.601563 8.046875 118.847656 4.378906 114.234375 2.234375 C 111.210938 0.769531 107.851563 -0.00390625 104.5 -0.00390625 L 49.835938 -0.00390625 C 46.121094 -0.00390625 42.4375 0.929688 39.179688 2.699219 C 31.976563 6.613281 27.5 14.132813 27.5 22.328125 L 27.5 28.164063 L 22.335938 28.164063 C 10.019531 28.164063 0 38.179688 0 50.496094 C 0 62.808594 10.019531 72.828125 22.335938 72.828125 L 27.5 72.828125 L 27.5 77.996094 C 27.5 90.3125 37.519531 100.328125 49.835938 100.328125 C 62.148438 100.328125 72.167969 90.3125 72.167969 77.996094 L 72.167969 72.828125 L 92 72.828125 C 96.292969 72.828125 100.308594 71.613281 103.714844 69.503906 L 112.460938 86.667969 C 112.894531 87.648438 113.40625 88.601563 113.984375 89.515625 C 118.015625 96.144531 125.289063 100.246094 133.066406 100.246094 C 136.390625 100.246094 139.734375 99.480469 142.738281 98.035156 C 148.183594 95.417969 152.917969 90.996094 155.335938 85.328125 L 161.683594 71.144531 L 169.597656 86.671875 C 170.03125 87.648438 170.539063 88.597656 171.113281 89.503906 C 175.144531 96.140625 182.421875 100.246094 190.203125 100.246094 C 193.523438 100.246094 196.867188 99.480469 199.871094 98.039063 C 204.976563 95.582031 208.945313 91.238281 210.988281 86.015625 C 214.324219 94.160156 222.339844 99.910156 231.667969 99.910156 L 287.835938 99.925781 C 300.148438 99.925781 310.167969 90.3125 310.167969 77.996094 L 310.167969 72.828125 L 315.335938 72.828125 C 327.648438 72.828125 337.667969 62.808594 337.667969 50.496094 C 337.667969 38.179688 327.648438 28.164063 315.335938 28.164063 L 310.167969 28.164063 L 310.167969 22.328125 C 310.167969 14.136719 305.691406 6.613281 298.488281 2.699219 C 295.230469 0.929688 291.546875 -0.00390625 287.835938 -0.00390625 M 238.667969 70.246094 L 280.5 70.246094 L 280.5 57.828125 L 238.667969 57.828125 Z M 287.835938 14.996094 C 289.101563 14.996094 290.289063 15.316406 291.328125 15.882813 C 293.613281 17.125 295.167969 19.546875 295.167969 22.328125 L 295.167969 43.164063 L 315.335938 43.164063 C 319.382813 43.164063 322.667969 46.445313 322.667969 50.496094 C 322.667969 54.546875 319.382813 57.828125 315.335938 57.828125 L 295.167969 57.828125 L 295.167969 77.597656 C 295.167969 81.648438 291.882813 84.933594 287.835938 84.933594 C 286.980469 84.933594 231.667969 84.910156 231.667969 84.910156 C 227.617188 84.910156 224.332031 81.625 224.332031 77.578125 L 224.332031 50.164063 L 224.351563 50.164063 C 224.523438 46.269531 227.730469 43.164063 231.667969 43.164063 L 280.5 43.164063 L 280.5 29.664063 L 224.136719 29.664063 L 197.386719 79.300781 C 196.957031 81.496094 195.542969 83.472656 193.371094 84.519531 C 192.347656 85.011719 191.265625 85.246094 190.203125 85.246094 C 187.660156 85.246094 185.210938 83.910156 183.867188 81.605469 C 183.597656 81.191406 183.367188 80.753906 183.183594 80.300781 L 162.058594 38.832031 L 140.6875 79.375 C 139.761719 81.546875 138.40625 83.472656 136.234375 84.519531 C 135.210938 85.011719 134.132813 85.246094 133.066406 85.246094 C 130.523438 85.246094 128.078125 83.914063 126.730469 81.605469 C 126.460938 81.191406 126.230469 80.753906 126.046875 80.296875 L 100.253906 29.664063 L 57.167969 29.664063 L 57.167969 43.164063 L 92 43.164063 C 96.050781 43.164063 99.335938 46.445313 99.335938 50.496094 C 99.335938 54.546875 96.050781 57.828125 92 57.828125 L 57.167969 57.828125 L 57.167969 77.996094 C 57.167969 82.046875 53.882813 85.328125 49.835938 85.328125 C 45.785156 85.328125 42.5 82.046875 42.5 77.996094 L 42.5 57.828125 L 22.335938 57.828125 C 18.285156 57.828125 15 54.546875 15 50.496094 C 15 46.445313 18.285156 43.164063 22.335938 43.164063 L 42.5 43.164063 L 42.5 22.328125 C 42.5 19.546875 44.050781 17.125 46.339844 15.882813 C 47.378906 15.316406 48.566406 14.996094 49.835938 14.996094 L 104.5 14.996094 C 105.691406 14.996094 106.808594 15.285156 107.804688 15.789063 C 109.335938 16.46875 110.648438 17.675781 111.433594 19.308594 L 133.054688 61.75 L 154.742188 21.214844 C 155.835938 18.996094 156.4375 17 158.78125 15.875 C 159.804688 15.382813 160.882813 15.148438 161.949219 15.148438 C 163.761719 15.148438 165.527344 15.828125 166.878906 17.050781 C 168.214844 18.097656 168.835938 18.804688 169.75 20.578125 L 190.1875 61.75 L 213.125 19.191406 C 213.722656 18.144531 214.539063 17.304688 215.484375 16.6875 C 216.753906 15.632813 218.386719 14.996094 220.167969 14.996094 L 287.835938 14.996094 "/>
</g>
</g>
</svg>
