<svg viewBox="0 0 41 37" xmlns="http://www.w3.org/2000/svg"><path d="m20.463 36.955 2.904-2.486c2.685-2.394 4.637-4.158 5.855-5.294 1.218-1.136 2.716-2.624 4.496-4.465 1.78-1.842 3.045-3.346 3.794-4.512.75-1.166 1.436-2.501 2.061-4.005s.937-2.992.937-4.466c0-3.007-1.062-5.555-3.185-7.641-2.124-2.087-4.747-3.13-7.87-3.13-3.621 0-6.619 1.38-8.992 4.142C18.09 2.336 15.093.955 11.47.955 8.41.955 5.818 2 3.695 4.085 1.57 6.173.51 8.72.51 11.728c0 1.474.296 2.962.89 4.466.593 1.504 1.28 2.839 2.06 4.005.781 1.166 2.046 2.67 3.794 4.512 1.75 1.841 3.248 3.33 4.497 4.465a783.385 783.385 0 0 0 5.808 5.202l2.904 2.578Z" fill="#EEEEF2" fill-rule="nonzero"/></svg>